# Blender 4.0.2
# www.blender.org
mtllib mcl_tea_cup_dark_oak.mtl
g Circle_Circle
v 0.093423 -0.376201 -0.217030
v 0.093423 -0.438210 -0.217030
v 0.093423 -0.376201 -0.155021
v 0.093423 -0.438210 -0.155021
v -0.092603 -0.499999 -0.093013
v -0.092603 -0.376201 0.155021
v -0.092603 -0.438210 0.155021
v -0.092603 -0.376201 0.217030
v -0.092603 -0.438210 0.217030
v -0.092603 -0.499999 0.093013
v -0.092603 -0.376201 -0.217030
v -0.092603 -0.438210 -0.217030
v -0.154611 -0.376201 0.093013
v -0.154611 -0.438210 0.093013
v -0.216620 -0.376201 0.093013
v -0.216620 -0.438210 0.093013
v -0.092603 -0.376201 -0.155021
v -0.092603 -0.438210 -0.155021
v -0.092603 -0.438210 0.155021
v -0.092603 -0.438210 0.093013
v -0.092603 -0.438210 -0.093013
v -0.092603 -0.438210 -0.155021
v 0.093423 -0.438210 0.155021
v 0.093423 -0.438210 0.093013
v 0.093423 -0.438210 -0.093013
v 0.093423 -0.438210 -0.155021
v 0.093423 -0.499999 0.093013
v 0.093423 -0.499999 -0.093013
v 0.093423 -0.499999 -0.155021
v -0.092603 -0.499999 0.155021
v -0.092603 -0.499999 -0.155021
v 0.093423 -0.499999 0.155021
v -0.154611 -0.438210 0.155021
v -0.154611 -0.376201 0.155021
v -0.154611 -0.438210 0.093013
v -0.154611 -0.376201 0.093013
v -0.092603 -0.438210 0.155021
v -0.092603 -0.376201 0.155021
v -0.092603 -0.438210 0.093013
v -0.092603 -0.376201 0.093013
v -0.154611 -0.438210 -0.093013
v -0.154611 -0.376201 -0.093013
v -0.154611 -0.438210 -0.155021
v -0.154611 -0.376201 -0.155021
v -0.092603 -0.438210 -0.093013
v -0.092603 -0.376201 -0.093013
v -0.092603 -0.438210 -0.155021
v -0.092603 -0.376201 -0.155021
v 0.093423 -0.438210 0.155021
v 0.093423 -0.376201 0.155021
v 0.093423 -0.438210 0.093013
v 0.093423 -0.376201 0.093013
v 0.155431 -0.438210 0.155021
v 0.155431 -0.376201 0.155021
v 0.155431 -0.438210 0.093013
v 0.155431 -0.376201 0.093013
v 0.093423 -0.438210 -0.093013
v 0.093423 -0.376201 -0.093013
v 0.093423 -0.438210 -0.155021
v 0.093423 -0.376201 -0.155021
v 0.155431 -0.438210 -0.093013
v 0.155431 -0.376201 -0.093013
v 0.155431 -0.438210 -0.155021
v 0.155431 -0.376201 -0.155021
v -0.216620 -0.438210 -0.093013
v -0.216620 -0.376201 -0.093013
v -0.154611 -0.438210 -0.093013
v -0.154611 -0.376201 -0.093013
v 0.093423 -0.438210 0.217030
v 0.093423 -0.376201 0.217030
v 0.093423 -0.438210 0.155021
v 0.093423 -0.376201 0.155021
v 0.155431 -0.438210 0.093013
v 0.155431 -0.376201 0.093013
v 0.217440 -0.438210 0.093013
v 0.217440 -0.376201 0.093013
v 0.155431 -0.438210 -0.093013
v 0.155431 -0.376201 -0.093013
v 0.217440 -0.438210 -0.093013
v 0.217440 -0.376201 -0.093013
v -0.092603 -0.499999 -0.093013
v -0.154611 -0.499999 -0.093013
v -0.092603 -0.499999 0.093013
v -0.154611 -0.499999 0.093013
v -0.154611 -0.438210 0.093013
v -0.092603 -0.438210 0.093013
v -0.154611 -0.438210 -0.093013
v -0.092603 -0.438210 -0.093013
v 0.093423 -0.438210 0.093013
v 0.155431 -0.438210 0.093013
v 0.093423 -0.438210 -0.093013
v 0.155431 -0.438210 -0.093013
v 0.093423 -0.499999 0.093013
v 0.093423 -0.499999 -0.093013
v 0.155431 -0.499999 -0.093013
v 0.155431 -0.499999 0.093013
vn 1.0000 -0.0000 -0.0000
vn -0.0000 -0.0000 -1.0000
vn -0.0000 -0.0000 1.0000
vn -0.0000 1.0000 -0.0000
vn -1.0000 -0.0000 -0.0000
vn -0.0000 -1.0000 -0.0000
vt 0.625000 0.562500
vt 0.437500 0.562500
vt 0.437500 0.500000
vt 0.625000 0.500000
vt 0.687500 0.562500
vt 0.750000 0.562500
vt 0.750000 0.500000
vt 0.687500 0.500000
vt 0.437500 0.625000
vt 0.437500 0.437500
vt 0.437500 0.375000
vt 0.625000 0.375000
vt 0.625000 0.437500
vt 0.625000 0.625000
vt 0.625000 0.687500
vt 0.437500 0.687500
vt 0.375000 0.500000
vt 0.375000 0.562500
vt 0.312500 0.562500
vt 0.312500 0.500000
vt 0.625000 0.750000
vt 0.437500 0.750000
vt 0.375000 0.625000
vt 0.375000 0.437500
vt 0.625000 0.312500
vt 0.437500 0.312500
vt 0.687500 0.625000
vt 0.687500 0.437500
vt 0.312500 0.437500
vt 0.312500 0.625000
vt 0.375000 0.375000
vt 0.375000 0.687500
vt 0.687500 0.375000
vt 0.687500 0.687500
vt 0.750000 0.625000
vt 0.750000 0.437500
s 0
usemtl Material
f 68/1/1 13/2/1 14/3/1 67/4/1
f 78/5/2 80/6/2 79/7/2 77/8/2
f 69/4/3 70/1/3 8/2/3 9/3/3
f 5/9/4 10/10/4 30/11/4 32/12/4 27/13/4 28/14/4 29/15/4 31/16/4
f 71/17/1 72/18/1 70/19/1 69/20/1
f 26/4/3 22/3/3 31/10/3 29/13/3
f 66/19/2 68/18/2 67/17/2 65/20/2
f 73/8/3 75/7/3 76/6/3 74/5/3
f 74/2/5 78/1/5 77/4/5 73/3/5
f 1/21/4 11/22/4 17/16/4 3/15/4
f 83/10/4 81/9/4 82/23/4 84/24/4
f 11/2/2 1/1/2 2/4/2 12/3/2
f 76/2/1 75/3/1 79/4/1 80/1/1
f 2/21/6 4/15/6 18/16/6 12/22/6
f 2/7/1 1/6/1 3/5/1 4/8/1
f 19/3/2 23/4/2 32/13/2 30/10/2
f 9/20/5 8/19/5 6/18/5 7/17/5
f 7/11/6 71/12/6 69/25/6 9/26/6
f 89/13/6 91/14/6 92/27/6 90/28/6
f 16/20/3 14/17/3 13/18/3 15/19/3
f 18/3/3 4/4/3 3/1/3 17/2/3
f 88/4/5 81/13/5 83/10/5 86/3/5
f 18/8/5 17/5/5 11/6/5 12/7/5
f 6/2/2 72/1/2 71/4/2 7/3/2
f 15/2/5 66/1/5 65/4/5 16/3/5
f 6/11/4 8/26/4 70/25/4 72/12/4
f 92/4/5 95/13/5 96/10/5 90/3/5
f 22/8/1 21/4/1 5/13/1 31/28/1
f 20/3/1 19/17/1 30/24/1 10/10/1
f 93/10/1 94/13/1 91/4/1 89/3/1
f 25/4/5 26/8/5 29/28/5 28/13/5
f 23/17/5 24/3/5 27/10/5 32/24/5
f 67/23/6 14/24/6 16/29/6 65/30/6
f 33/17/3 37/3/3 38/2/3 34/18/3
f 36/18/2 40/2/2 39/3/2 35/17/2
f 33/17/5 34/18/5 36/2/5 35/3/5
f 39/3/1 40/2/1 38/18/1 37/17/1
f 38/11/4 40/10/4 36/24/4 34/31/4
f 41/17/3 45/3/3 46/2/3 42/18/3
f 44/18/2 48/2/2 47/3/2 43/17/2
f 41/4/5 42/1/5 44/5/5 43/8/5
f 47/8/1 48/5/1 46/1/1 45/4/1
f 46/9/4 48/16/4 44/32/4 42/23/4
f 49/4/3 53/8/3 54/5/3 50/1/3
f 52/1/2 56/5/2 55/8/2 51/4/2
f 49/17/5 50/18/5 52/2/5 51/3/5
f 55/3/1 56/2/1 54/18/1 53/17/1
f 54/33/4 56/28/4 52/13/4 50/12/4
f 57/4/3 61/8/3 62/5/3 58/1/3
f 60/1/2 64/5/2 63/8/2 59/4/2
f 57/4/5 58/1/5 60/5/5 59/8/5
f 63/8/1 64/5/1 62/1/1 61/4/1
f 62/27/4 64/34/4 60/15/4 58/14/4
f 51/13/4 49/12/4 53/33/4 55/28/4
f 35/24/4 33/31/4 37/11/4 39/10/4
f 43/32/4 41/23/4 45/9/4 47/16/4
f 59/15/4 57/14/4 61/27/4 63/34/4
f 73/28/6 77/27/6 79/35/6 75/36/6
f 20/10/6 21/9/6 22/16/6 26/15/6 25/14/6 24/13/6 23/12/6 19/11/6
f 76/36/4 80/35/4 78/27/4 74/28/4
f 13/24/4 68/23/4 66/30/4 15/29/4
f 85/24/6 87/23/6 88/9/6 86/10/6
f 89/4/2 90/8/2 96/28/2 93/13/2
f 96/28/4 95/27/4 94/14/4 93/13/4
f 92/8/3 91/4/3 94/13/3 95/28/3
f 87/4/1 85/3/1 84/10/1 82/13/1
f 88/3/3 87/17/3 82/24/3 81/10/3
f 85/17/2 86/3/2 83/10/2 84/24/2
g Circle.001_Circle.001
v -0.092603 -0.394398 -0.155021
v -0.154611 -0.394398 0.093013
v -0.092603 -0.394398 0.155021
v -0.092603 -0.394398 0.093013
v -0.092603 -0.394398 -0.093013
v 0.093423 -0.394398 0.093013
v 0.093423 -0.394398 -0.093013
v 0.093423 -0.394398 -0.155021
v 0.155431 -0.394398 -0.093013
v -0.154611 -0.394398 -0.093013
v 0.093423 -0.394398 0.155021
v 0.155431 -0.394398 0.093013
vn -0.0000 1.0000 -0.0000
vt 0.200000 0.200000
vt 0.200000 0.000000
vt 0.800000 0.000000
vt 0.800000 0.200000
vt 1.000000 0.200000
vt 1.000000 0.800000
vt 0.800000 0.800000
vt 0.800000 1.000000
vt 0.200000 1.000000
vt 0.200000 0.800000
vt 0.000000 0.800000
vt 0.000000 0.200000
s 0
usemtl Material
f 100/37/7 99/38/7 107/39/7 102/40/7 108/41/7 105/42/7 103/43/7 104/44/7 97/45/7 101/46/7 106/47/7 98/48/7
