# Blender 4.0.2
# www.blender.org
g Cube_Cube
v 0.250296 0.062483 -0.250296
v 0.312500 -0.500000 -0.312500
v 0.250296 0.062483 0.250296
v 0.312500 -0.500000 0.312500
v -0.250296 0.062483 -0.250296
v -0.312500 -0.500000 -0.312500
v -0.250296 0.062483 0.250296
v -0.312500 -0.500000 0.312500
v 0.312500 0.062483 0.312500
v -0.312500 0.062483 0.312500
v 0.312500 0.062483 -0.312500
v -0.312500 0.062483 -0.312500
v 0.250296 -0.437517 0.250296
v -0.250296 -0.437517 0.250296
v 0.250296 -0.437517 -0.250296
v -0.250296 -0.437517 -0.250296
v -0.250296 0.062483 0.312500
v -0.250296 -0.500000 0.312500
v -0.312500 0.062483 0.250296
v -0.312500 -0.500000 0.250296
v 0.312500 -0.500000 0.250296
v 0.312500 0.062483 0.250296
v 0.250296 -0.500000 0.312500
v 0.250296 0.062483 0.312500
v 0.312500 0.062483 -0.250296
v 0.312500 -0.500000 -0.250296
v 0.250296 0.062483 -0.312500
v 0.250296 -0.500000 -0.312500
v -0.312500 -0.500000 -0.250296
v -0.312500 0.062483 -0.250296
v -0.250296 -0.500000 -0.312500
v -0.250296 0.062483 -0.312500
v -0.250296 -0.056835 0.250296
v -0.250296 -0.056835 -0.250296
v 0.250296 -0.056835 0.250296
v 0.250296 -0.056835 -0.250296
vn 1.0000 -0.0000 -0.0000
vn -0.0000 -0.0000 1.0000
vn -1.0000 -0.0000 -0.0000
vn -0.0000 -1.0000 -0.0000
vn -0.0000 -0.0000 -1.0000
vn -0.0000 1.0000 -0.0000
vt 0.630682 0.312500
vt 0.630682 0.812500
vt 0.250000 0.812500
vt 0.250000 0.312500
vt 0.187500 0.250000
vt 0.750000 0.250000
vt 0.750000 0.312500
vt 0.187500 0.312500
vt 0.750000 0.875000
vt 0.187500 0.875000
vt 0.187500 0.812500
vt 0.750000 0.812500
vt 0.250000 0.250000
vt 0.812500 0.250000
vt 0.812500 0.312500
vt 0.812500 0.812500
vt 0.812500 0.875000
vt 0.250000 0.875000
vt 0.687500 0.312500
vt 0.687500 0.812500
s 0
f 34/1/1 33/2/1 14/3/1 16/4/1
f 4/5/2 9/6/2 24/7/2 23/8/2
f 8/9/3 10/10/3 19/11/3 20/12/3
f 6/5/4 31/13/4 28/6/4 2/14/4 26/15/4 21/16/4 4/17/4 23/9/4 18/18/4 8/10/4 20/11/4 29/8/4
f 2/5/1 11/6/1 25/7/1 26/8/1
f 6/5/5 12/6/5 32/7/5 31/8/5
f 3/12/6 7/7/6 17/15/6 24/16/6
f 7/4/6 5/3/6 30/11/6 19/8/6
f 5/4/6 1/3/6 27/11/6 32/8/6
f 15/8/6 16/19/6 14/20/6 13/11/6
f 33/2/5 35/1/5 13/4/5 14/3/5
f 36/1/2 34/2/2 16/3/2 15/4/2
f 35/2/3 36/1/3 15/4/3 13/3/3
f 32/8/6 12/5/6 30/13/6 5/4/6
f 27/11/6 1/3/6 25/18/6 11/10/6
f 18/11/2 17/12/2 10/9/2 8/10/2
f 20/12/3 19/11/3 30/8/3 29/7/3
f 19/6/6 10/14/6 17/15/6 7/7/6
f 21/11/1 22/12/1 9/9/1 4/10/1
f 23/8/2 24/7/2 17/12/2 18/11/2
f 25/16/6 1/12/6 3/7/6 22/15/6
f 26/8/1 25/7/1 22/12/1 21/11/1
f 28/11/5 27/12/5 11/9/5 2/10/5
f 29/7/3 30/8/3 12/5/3 6/6/3
f 24/16/6 9/17/6 22/9/6 3/12/6
f 31/8/5 32/7/5 27/12/5 28/11/5
f 3/12/3 1/7/3 36/1/3 35/2/3
f 1/7/2 5/12/2 34/2/2 36/1/2
f 7/12/5 3/7/5 35/1/5 33/2/5
f 5/7/1 7/12/1 33/2/1 34/1/1
g Cube.001_Cube.001
v -0.250296 -0.056835 0.250296
v -0.250296 -0.056835 -0.250296
v 0.250296 -0.056835 0.250296
v 0.250296 -0.056835 -0.250296
vn -0.0000 1.0000 -0.0000
vt 0.750000 0.750000
vt 0.250000 0.750000
vt 0.250000 0.250000
vt 0.750000 0.250000
s 0
f 40/21/7 38/22/7 37/23/7 39/24/7
