# Blender 4.0.2
# www.blender.org
g Cube_Cube.002
v -0.125000 -0.500000 0.125000
v -0.125000 -0.437500 0.125000
v -0.125000 -0.500000 -0.125000
v -0.125000 -0.437500 -0.125000
v 0.125000 -0.500000 0.125000
v 0.125000 -0.437500 0.125000
v 0.125000 -0.500000 -0.125000
v 0.125000 -0.437500 -0.125000
v -0.000000 -0.500000 -0.125000
v -0.000000 -0.437500 -0.125000
v -0.000000 -0.500000 -0.187500
v -0.000000 -0.437500 -0.187500
v 0.062500 -0.500000 -0.125000
v 0.062500 -0.437500 -0.125000
v 0.062500 -0.500000 -0.187500
v 0.062500 -0.437500 -0.187500
v 0.125000 -0.500000 0.062500
v 0.125000 -0.437500 0.062500
v 0.125000 -0.500000 0.000000
v 0.125000 -0.437500 0.000000
v 0.187500 -0.500000 0.062500
v 0.187500 -0.437500 0.062500
v 0.187500 -0.500000 0.000000
v 0.187500 -0.437500 0.000000
v -0.062500 -0.500000 0.187500
v -0.062500 -0.437500 0.187500
v -0.062500 -0.500000 0.125000
v -0.062500 -0.437500 0.125000
v 0.000000 -0.500000 0.187500
v 0.000000 -0.437500 0.187500
v 0.000000 -0.500000 0.125000
v 0.000000 -0.437500 0.125000
v -0.187500 -0.500000 0.000000
v -0.187500 -0.437500 0.000000
v -0.187500 -0.500000 -0.062500
v -0.187500 -0.437500 -0.062500
v -0.125000 -0.500000 0.000000
v -0.125000 -0.437500 0.000000
v -0.125000 -0.500000 -0.062500
v -0.125000 -0.437500 -0.062500
v -0.062500 -0.437500 0.062500
v -0.062500 0.000000 0.062500
v -0.062500 -0.437500 -0.062500
v -0.062500 0.000000 -0.062500
v 0.062500 -0.437500 0.062500
v 0.062500 0.000000 0.062500
v 0.062500 -0.437500 -0.062500
v 0.062500 0.000000 -0.062500
v -0.187500 0.000000 0.187500
v -0.187500 0.000000 -0.187500
v 0.187500 0.000000 0.187500
v 0.187500 0.000000 -0.187500
v -0.187500 0.187500 0.187500
v -0.187500 0.187500 -0.187500
v 0.187500 0.187500 -0.187500
v 0.187500 0.187500 0.187500
v -0.250000 0.187500 0.250000
v -0.250000 0.187500 -0.250000
v 0.250000 0.187500 -0.250000
v 0.250000 0.187500 0.250000
v -0.250000 0.250000 0.250000
v -0.250000 0.250000 -0.250000
v 0.250000 0.250000 -0.250000
v 0.250000 0.250000 0.250000
v -0.187500 0.187500 0.187500
v -0.187500 0.187500 -0.187500
v 0.187500 0.187500 -0.187500
v 0.187500 0.187500 0.187500
v -0.187500 0.250000 0.187500
v -0.187500 0.250000 -0.187500
v 0.187500 0.250000 -0.187500
v 0.187500 0.250000 0.187500
v -0.125000 0.187500 0.125000
v -0.125000 0.187500 -0.125000
v 0.125000 0.187500 -0.125000
v 0.125000 0.187500 0.125000
v -0.125000 0.062500 0.125000
v -0.125000 0.062500 -0.125000
v 0.125000 0.062500 -0.125000
v 0.125000 0.062500 0.125000
vn -1.0000 -0.0000 -0.0000
vn -0.0000 -0.0000 -1.0000
vn 1.0000 -0.0000 -0.0000
vn -0.0000 -0.0000 1.0000
vn -0.0000 -1.0000 -0.0000
vn -0.0000 1.0000 -0.0000
vt 0.562500 0.187500
vt 0.562500 0.250000
vt 0.812500 0.250000
vt 0.812500 0.187500
vt 0.562500 0.687500
vt 0.812500 0.687500
vt 0.812500 0.437500
vt 0.562500 0.437500
vt 0.875000 0.250000
vt 0.875000 0.187500
vt 0.687500 0.187500
vt 0.687500 0.250000
vt 0.750000 0.250000
vt 0.750000 0.187500
vt 0.687500 0.750000
vt 0.750000 0.750000
vt 0.750000 0.687500
vt 0.687500 0.687500
vt 0.625000 0.187500
vt 0.625000 0.250000
vt 0.812500 0.562500
vt 0.875000 0.562500
vt 0.875000 0.500000
vt 0.812500 0.500000
vt 0.500000 0.187500
vt 0.500000 0.250000
vt 0.625000 0.437500
vt 0.687500 0.437500
vt 0.687500 0.375000
vt 0.625000 0.375000
vt 0.500000 0.625000
vt 0.562500 0.625000
vt 0.562500 0.562500
vt 0.500000 0.562500
vt 0.625000 0.687500
vt 0.625000 0.625000
vt 0.750000 0.625000
vt 0.750000 0.500000
vt 0.625000 0.500000
vt 0.437500 0.187500
vt 0.437500 0.562500
vt 0.437500 0.500000
vt 0.437500 0.687500
vt 0.875000 0.125000
vt 0.375000 0.125000
vt 0.875000 0.625000
vt 0.375000 0.625000
vt 0.875000 0.687500
vt 0.375000 0.687500
vt 0.375000 0.750000
vt 0.875000 0.750000
vt 0.437500 0.750000
vt 0.812500 0.750000
vt 0.500000 0.687500
vt 0.750000 0.562500
vt 0.500000 0.500000
s 0
f 1/1/1 2/2/1 4/3/1 3/4/1
f 3/1/2 4/2/2 8/3/2 7/4/2
f 7/4/3 8/3/3 6/2/3 5/1/3
f 5/4/4 6/3/4 2/2/4 1/1/4
f 3/5/5 7/6/5 5/7/5 1/8/5
f 8/6/6 4/5/6 2/8/6 6/7/6
f 9/4/1 10/3/1 12/9/1 11/10/1
f 11/11/2 12/12/2 16/13/2 15/14/2
f 15/10/3 16/9/3 14/3/3 13/4/3
f 13/14/4 14/13/4 10/12/4 9/11/4
f 11/15/5 15/16/5 13/17/5 9/18/5
f 16/16/6 12/15/6 10/18/6 14/17/6
f 17/19/1 18/20/1 20/12/1 19/11/1
f 19/4/2 20/3/2 24/9/2 23/10/2
f 23/11/3 24/12/3 22/20/3 21/19/3
f 21/10/4 22/9/4 18/3/4 17/4/4
f 19/21/5 23/22/5 21/23/5 17/24/5
f 24/22/6 20/21/6 18/24/6 22/23/6
f 25/25/1 26/26/1 28/2/1 27/1/1
f 27/19/2 28/20/2 32/12/2 31/11/2
f 31/1/3 32/2/3 30/26/3 29/25/3
f 29/11/4 30/12/4 26/20/4 25/19/4
f 27/27/5 31/28/5 29/29/5 25/30/5
f 32/28/6 28/27/6 26/30/6 30/29/6
f 33/11/1 34/12/1 36/13/1 35/14/1
f 35/25/2 36/26/2 40/2/2 39/1/2
f 39/14/3 40/13/3 38/12/3 37/11/3
f 37/1/4 38/2/4 34/26/4 33/25/4
f 35/31/5 39/32/5 37/33/5 33/34/5
f 40/32/6 36/31/6 34/34/6 38/33/6
f 41/20/1 42/35/1 44/17/1 43/13/1
f 43/20/2 44/35/2 48/17/2 47/13/2
f 47/13/3 48/17/3 46/35/3 45/20/3
f 45/13/4 46/17/4 42/35/4 41/20/4
f 43/36/5 47/37/5 45/38/5 41/39/5
f 48/37/6 44/36/6 42/39/6 46/38/6
f 52/21/5 51/4/5 49/40/5 50/41/5
f 53/40/6 56/4/6 76/13/6 73/26/6
f 52/24/2 50/42/2 54/43/2 55/6/2
f 51/42/3 52/24/3 55/6/3 56/43/3
f 50/24/1 49/42/1 53/43/1 54/6/1
f 49/42/4 51/24/4 56/6/4 53/43/4
f 60/44/5 57/45/5 65/40/5 68/4/5
f 63/46/6 62/47/6 70/41/6 71/21/6
f 58/48/1 57/49/1 61/50/1 62/51/1
f 57/49/4 60/48/4 64/51/4 61/50/4
f 59/48/2 58/49/2 62/50/2 63/51/2
f 60/49/3 59/48/3 63/51/3 64/50/3
f 72/52/1 71/53/1 67/6/1 68/43/1
f 69/52/2 72/53/2 68/6/2 65/43/2
f 58/47/5 59/46/5 67/21/5 66/41/5
f 64/44/6 63/46/6 71/21/6 72/4/6
f 62/47/6 61/45/6 69/40/6 70/41/6
f 59/46/5 60/44/5 68/4/5 67/21/5
f 57/45/5 58/47/5 66/41/5 65/40/5
f 61/45/6 64/44/6 72/4/6 69/40/6
f 71/53/4 70/52/4 66/43/4 67/6/4
f 70/53/3 69/52/3 65/43/3 66/6/3
f 74/17/3 73/54/3 77/34/3 78/55/3
f 55/21/6 54/41/6 74/56/6 75/38/6
f 56/4/6 55/21/6 75/38/6 76/13/6
f 54/41/6 53/40/6 73/26/6 74/56/6
f 79/38/6 78/56/6 77/26/6 80/13/6
f 73/54/2 76/17/2 80/55/2 77/34/2
f 75/17/4 74/54/4 78/34/4 79/55/4
f 76/54/1 75/17/1 79/55/1 80/34/1
g Cube.001_Cube.001
g Cube.002_Cube.003
v -0.187500 0.215394 0.187500
v -0.187500 0.215394 -0.187500
v 0.187500 0.215394 -0.187500
v 0.187500 0.215394 0.187500
vn -0.0000 1.0000 -0.0000
vt 0.312500 0.312500
vt 0.687500 0.312500
vt 0.687500 0.687500
vt 0.312500 0.687500
s 0
f 81/57/7 84/58/7 83/59/7 82/60/7
